<mxfile host="app.diagrams.net" agent="Mozilla/5.0 (X11; Ubuntu; Linux x86_64; rv:130.0) Gecko/20100101 Firefox/130.0" version="24.7.12">
  <diagram name="Page-1" id="FNTdVRbgPGLcr14oMT5p">
    <mxGraphModel dx="819" dy="453" grid="1" gridSize="10" guides="1" tooltips="1" connect="1" arrows="1" fold="1" page="1" pageScale="1" pageWidth="827" pageHeight="1169" math="0" shadow="0">
      <root>
        <mxCell id="0" />
        <mxCell id="1" parent="0" />
        <mxCell id="a5Tx_0ahdsPdAguqlhMa-5" value="" style="edgeStyle=orthogonalEdgeStyle;rounded=0;orthogonalLoop=1;jettySize=auto;html=1;curved=1;" edge="1" parent="1" source="a5Tx_0ahdsPdAguqlhMa-1" target="a5Tx_0ahdsPdAguqlhMa-4">
          <mxGeometry relative="1" as="geometry" />
        </mxCell>
        <mxCell id="a5Tx_0ahdsPdAguqlhMa-1" value="&lt;div&gt;EWS-FLI1&lt;/div&gt;&lt;div&gt;samples&lt;br&gt;&lt;/div&gt;" style="rounded=1;whiteSpace=wrap;html=1;fillColor=#000000;fontColor=#FFFFFF;" vertex="1" parent="1">
          <mxGeometry x="260" y="140" width="90" height="40" as="geometry" />
        </mxCell>
        <mxCell id="a5Tx_0ahdsPdAguqlhMa-6" value="" style="edgeStyle=orthogonalEdgeStyle;rounded=0;orthogonalLoop=1;jettySize=auto;html=1;curved=1;" edge="1" parent="1" source="a5Tx_0ahdsPdAguqlhMa-2" target="a5Tx_0ahdsPdAguqlhMa-4">
          <mxGeometry relative="1" as="geometry" />
        </mxCell>
        <mxCell id="a5Tx_0ahdsPdAguqlhMa-2" value="&lt;div&gt;no EWS-FLI1&lt;/div&gt;&lt;div&gt;samples&lt;br&gt;&lt;/div&gt;" style="rounded=1;whiteSpace=wrap;html=1;fillColor=#000000;fontColor=#FFFFFF;" vertex="1" parent="1">
          <mxGeometry x="369" y="140" width="90" height="40" as="geometry" />
        </mxCell>
        <mxCell id="a5Tx_0ahdsPdAguqlhMa-8" value="" style="edgeStyle=orthogonalEdgeStyle;rounded=0;orthogonalLoop=1;jettySize=auto;html=1;" edge="1" parent="1" source="a5Tx_0ahdsPdAguqlhMa-4" target="a5Tx_0ahdsPdAguqlhMa-7">
          <mxGeometry relative="1" as="geometry" />
        </mxCell>
        <mxCell id="a5Tx_0ahdsPdAguqlhMa-4" value="Initial QC assesment" style="rounded=1;whiteSpace=wrap;html=1;fillColor=#d5e8d4;strokeColor=#82b366;" vertex="1" parent="1">
          <mxGeometry x="300" y="220" width="120" height="20" as="geometry" />
        </mxCell>
        <mxCell id="a5Tx_0ahdsPdAguqlhMa-10" style="edgeStyle=orthogonalEdgeStyle;rounded=0;orthogonalLoop=1;jettySize=auto;html=1;" edge="1" parent="1" source="a5Tx_0ahdsPdAguqlhMa-7" target="a5Tx_0ahdsPdAguqlhMa-9">
          <mxGeometry relative="1" as="geometry" />
        </mxCell>
        <mxCell id="a5Tx_0ahdsPdAguqlhMa-7" value="Mapping and identification of novel splicing sites" style="rounded=1;whiteSpace=wrap;html=1;fillColor=#fad9d5;strokeColor=#ae4132;" vertex="1" parent="1">
          <mxGeometry x="220" y="260" width="280" height="20" as="geometry" />
        </mxCell>
        <mxCell id="a5Tx_0ahdsPdAguqlhMa-13" style="edgeStyle=orthogonalEdgeStyle;rounded=0;orthogonalLoop=1;jettySize=auto;html=1;" edge="1" parent="1" source="a5Tx_0ahdsPdAguqlhMa-9" target="a5Tx_0ahdsPdAguqlhMa-11">
          <mxGeometry relative="1" as="geometry" />
        </mxCell>
        <mxCell id="a5Tx_0ahdsPdAguqlhMa-9" value="Post-mapping QC assessment" style="rounded=1;whiteSpace=wrap;html=1;fillColor=#d5e8d4;strokeColor=#82b366;" vertex="1" parent="1">
          <mxGeometry x="270" y="300" width="180" height="20" as="geometry" />
        </mxCell>
        <mxCell id="a5Tx_0ahdsPdAguqlhMa-15" style="edgeStyle=orthogonalEdgeStyle;rounded=0;orthogonalLoop=1;jettySize=auto;html=1;" edge="1" parent="1" source="a5Tx_0ahdsPdAguqlhMa-11" target="a5Tx_0ahdsPdAguqlhMa-14">
          <mxGeometry relative="1" as="geometry" />
        </mxCell>
        <mxCell id="a5Tx_0ahdsPdAguqlhMa-11" value="Reference-based transcriptome assembly and quantification" style="rounded=1;whiteSpace=wrap;html=1;fillColor=#fff2cc;strokeColor=#d6b656;" vertex="1" parent="1">
          <mxGeometry x="195" y="340" width="330" height="20" as="geometry" />
        </mxCell>
        <mxCell id="a5Tx_0ahdsPdAguqlhMa-17" style="edgeStyle=orthogonalEdgeStyle;rounded=0;orthogonalLoop=1;jettySize=auto;html=1;" edge="1" parent="1" source="a5Tx_0ahdsPdAguqlhMa-14" target="a5Tx_0ahdsPdAguqlhMa-16">
          <mxGeometry relative="1" as="geometry" />
        </mxCell>
        <mxCell id="a5Tx_0ahdsPdAguqlhMa-14" value="Post-assembly QC assessment" style="rounded=1;whiteSpace=wrap;html=1;fillColor=#d5e8d4;strokeColor=#82b366;" vertex="1" parent="1">
          <mxGeometry x="270" y="380" width="180" height="20" as="geometry" />
        </mxCell>
        <mxCell id="a5Tx_0ahdsPdAguqlhMa-16" value="Isoform switching and functional analysis" style="rounded=1;whiteSpace=wrap;html=1;fillColor=#dae8fc;strokeColor=#6c8ebf;" vertex="1" parent="1">
          <mxGeometry x="240" y="420" width="240" height="20" as="geometry" />
        </mxCell>
      </root>
    </mxGraphModel>
  </diagram>
</mxfile>
